Coordinates
version=1
nRows=29
nColumns=24
inDegrees=yes

Units are S.I. units (second, meters, Newtons, ...)
Angles are in degrees.

endheader
time	pelvis_tilt	pelvis_list	pelvis_rotation	pelvis_tx	pelvis_ty	pelvis_tz	hip_flexion_r	hip_adduction_r	hip_rotation_r	knee_angle_r	ankle_angle_r	subtalar_angle_r	mtp_angle_r	hip_flexion_l	hip_adduction_l	hip_rotation_l	knee_angle_l	ankle_angle_l	subtalar_angle_l	mtp_angle_l	lumbar_extension	lumbar_bending	lumbar_rotation
      1.06700000	     -0.22751377	     -2.92072558	     -3.80624648	     -0.14719102	      0.98052545	      0.33650259	    -16.05818642	      6.23633725	      0.32797459	     -6.74609284	     11.78754602	     -4.53054649	     -1.12388804	     22.96762418	     -2.11722349	     -5.30872798	     -0.32753833	     -0.33831227	     -1.86711162	      1.61865689	     -2.35794998	      6.75296724	      6.84611602
      1.07116667	     -0.28115543	     -2.87884897	     -3.85258712	     -0.14139159	      0.97990920	      0.33627704	    -16.13397418	      6.13634731	      0.34554769	     -7.15811707	     11.72360710	     -4.54733339	     -1.10268212	     22.93615387	     -2.02872107	     -5.37588934	     -0.27187969	     -0.41322909	     -1.93989941	      1.63376920	     -2.28935904	      6.71761445	      6.86041372
      1.07533333	     -0.38165650	     -2.78942087	     -3.88623071	     -0.13555050	      0.97927531	      0.33600633	    -16.12348478	      5.98782249	      0.29464844	     -7.64098144	     11.79419672	     -4.41698809	     -0.98997992	     22.95051980	     -1.88320501	     -5.35993344	     -0.26335021	     -0.72983281	     -2.27589896	      1.71422182	     -2.14100908	      6.60746398	      6.99993972
      1.07950000	     -0.45826453	     -2.72342104	     -3.91083219	     -0.12970658	      0.97872314	      0.33572473	    -16.11664761	      5.86432622	      0.21474149	     -8.15662033	     11.73791197	     -4.30757207	     -0.80184318	     22.96345312	     -1.76132505	     -5.32653392	     -0.37441656	     -0.98207689	     -2.67674432	      1.86288387	     -2.01855384	      6.54154314	      7.05889057
      1.08366667	     -0.50062547	     -2.62217917	     -3.93170256	     -0.12379231	      0.97828324	      0.33546878	    -16.16166864	      5.71144757	      0.21126564	     -8.63830399	     11.60263843	     -4.39850557	     -0.76325575	     22.97131015	     -1.61348417	     -5.41804453	     -0.61812590	     -1.16606996	     -2.82121670	      1.89403846	     -1.93771468	      6.42391389	      7.05535169
      1.08783333	     -0.58956817	     -2.51009505	     -3.91821255	     -0.11785815	      0.97781098	      0.33514858	    -16.11972945	      5.55548272	      0.12854446	     -9.18750431	     11.48891465	     -4.35343156	     -0.20427509	     22.99226062	     -1.43116532	     -5.23668394	     -0.82707085	     -1.55618967	     -3.44798308	      2.36847721	     -1.78300843	      6.26785095	      7.09551209
      1.09200000	     -0.72454961	     -2.42805564	     -3.92947068	     -0.11195119	      0.97735414	      0.33488232	    -16.00266554	      5.44024531	      0.16333027	     -9.78909049	     11.39453171	     -4.51119448	     -0.04915691	     23.13873479	     -1.31232478	     -5.27310775	     -1.24139300	     -1.87104031	     -3.67194153	      2.49296941	     -1.58702865	      6.17629154	      7.11056614
      1.09616667	     -0.80516278	     -2.29489149	     -3.92354097	     -0.10596107	      0.97701876	      0.33458526	    -15.93380596	      5.26874869	      0.14960268	    -10.40001339	     11.18504380	     -4.67098944	      0.05692284	     23.20432630	     -1.12957605	     -5.25854466	     -1.65636200	     -2.18662382	     -3.96306640	      2.57934172	     -1.45324926	      6.00964556	      7.11080360
      1.10033333	     -0.92744071	     -2.20725426	     -3.88844999	     -0.09999417	      0.97667023	      0.33424566	    -15.80081227	      5.16121237	      0.14701161	    -11.04460994	     10.99595726	     -4.83798648	      0.26859210	     23.33496995	     -0.98206169	     -5.12387077	     -2.13866284	     -2.59810676	     -4.50214183	      2.74783857	     -1.25034900	      5.89973403	      7.10516745
      1.10450000	     -1.03369868	     -2.08817305	     -3.85328705	     -0.09398115	      0.97640285	      0.33390337	    -15.65625370	      5.01909483	      0.12869056	    -11.73677261	     10.73854145	     -5.03326043	      0.51130138	     23.44721673	     -0.80522159	     -5.01954914	     -2.65243868	     -3.00585559	     -4.96350244	      2.93488048	     -1.07425606	      5.75195898	      7.08423740
      1.10866667	     -1.08391583	     -1.95194250	     -3.80229440	     -0.08791530	      0.97625036	      0.33352515	    -15.54917463	      4.84988899	      0.03732576	    -12.45083244	     10.30442803	     -5.23592817	      4.71418147	     23.49281006	     -0.60332153	     -4.91337192	     -3.17560870	     -3.43615996	     -5.43563951	      5.92131035	     -0.96471670	      5.57858284	      7.06147648
      1.11283333	     -1.20628743	     -1.82958372	     -3.75564229	     -0.08186243	      0.97607058	      0.33316945	    -15.33283571	      4.71464995	      0.04280769	    -13.23846657	     10.02028621	     -5.50740389	      4.76626528	     23.64263714	     -0.42813251	     -4.83776350	     -3.77741875	     -3.85444782	     -5.82015642	      5.89627813	     -0.75924817	      5.41678613	      7.01665298
      1.11700000	     -1.30836314	     -1.70344497	     -3.69093392	     -0.07579113	      0.97596652	      0.33277712	    -15.11295789	      4.57733019	      0.02362294	    -14.05959506	      9.62638722	     -5.77885074	      4.85374763	     23.76244550	     -0.23831345	     -4.69678741	     -4.38096634	     -4.26566093	     -6.25958158	      5.88456097	     -0.58706051	      5.26149868	      6.96821752
      1.12116667	     -1.40091673	     -1.57589910	     -3.61969968	     -0.06969514	      0.97592587	      0.33236918	    -14.87062242	      4.43808830	     -0.01631492	    -14.93239381	      9.18487519	     -6.05195845	      4.98584944	     23.86581976	     -0.04470784	     -4.55009094	     -4.98863389	     -4.67501247	     -6.69900304	      5.88352534	     -0.40941269	      5.09356382	      6.91167048
      1.12533333	     -1.48124396	     -1.44298093	     -3.53876181	     -0.06358084	      0.97594946	      0.33195190	    -14.60963356	      4.29497480	     -0.06878882	    -15.85539520	      8.69045099	     -6.33068200	      5.16248212	     23.95553978	      0.15591036	     -4.40423715	     -5.60851279	     -5.06742924	     -7.10858924	      5.89041955	     -0.24609492	      4.91405297	      6.84566113
      1.12950000	     -1.56999110	     -1.30810681	     -3.45145479	     -0.05746456	      0.97601417	      0.33150508	    -14.30475157	      4.15113869	     -0.11882097	    -16.82933206	      8.14117734	     -6.61887350	      5.39229394	     24.05447661	      0.36082707	     -4.25013008	     -6.24002717	     -5.44162990	     -7.49958412	      5.90259757	     -0.08320712	      4.74631783	      6.77524128
      1.13366667	     -1.65193446	     -1.17092259	     -3.36379181	     -0.05133189	      0.97613850	      0.33106041	    -13.96651487	      4.00201450	     -0.18809102	    -17.86703474	      7.51864354	     -6.89718330	      5.64503198	     24.13423073	      0.56563813	     -4.10496147	     -6.85971400	     -5.78816713	     -7.83084679	      5.91471088	      0.08214645	      4.56346037	      6.70571563
      1.13783333	     -1.71042970	     -1.02534276	     -3.25837438	     -0.04519358	      0.97632618	      0.33058872	    -13.62653680	      3.84635996	     -0.26890623	    -18.93953167	      6.87485644	     -7.19167023	      6.10565067	     24.19782158	      0.78727329	     -3.95519208	     -7.50741772	     -6.09932298	     -8.23159078	      5.93281426	      0.21717457	      4.36435105	      6.61032250
      1.14200000	     -1.68645480	     -0.83561783	     -3.18055880	     -0.03899293	      0.97670896	      0.33011863	    -13.34026240	      3.61750687	     -0.37879902	    -20.04327134	      6.01251309	     -7.56382655	     11.45020638	     24.09277747	      1.05480033	     -3.79689726	     -8.00423433	     -6.47357657	     -8.64065944	      6.07051789	      0.26036974	      4.11673830	      6.45732645
      1.14616667	     -1.76454941	     -0.69553492	     -3.07396770	     -0.03286925	      0.97694456	      0.32963326	    -12.87977380	      3.45521454	     -0.52066503	    -21.26961945	      5.23011045	     -7.76397164	     11.50072849	     24.17668295	      1.25661361	     -3.71525718	     -8.67222955	     -6.59000137	     -8.68046667	      6.06584834	      0.42163674	      3.93419392	      6.47063949
      1.15033333	     -1.81680275	     -0.54662432	     -2.97519084	     -0.02675180	      0.97726714	      0.32914313	    -12.42119333	      3.28050825	     -0.62471338	    -22.52130780	      4.38647165	     -8.01287288	     11.62152411	     24.21236164	      1.47142962	     -3.61847792	     -9.30421893	     -6.75583298	     -8.88800155	      6.05086956	      0.54495342	      3.74025521	      6.39905808
      1.15450000	     -1.83906804	     -0.38678605	     -2.87833207	     -0.02063848	      0.97766821	      0.32864843	    -11.95439557	      3.08617991	     -0.74684750	    -23.82557616	      3.46187913	     -8.25207235	     11.81965525	     24.18562627	      1.70113552	     -3.50345183	     -9.88202680	     -6.89023223	     -9.09389408	      6.02457070	      0.63485492	      3.53132466	      6.31119813
      1.15866667	     -1.81193839	     -0.18319844	     -2.78945400	     -0.01449859	      0.97817208	      0.32816379	    -11.50807985	      2.83235254	     -0.88645007	    -25.17295149	      2.48742774	     -8.47987176	     11.90551080	     24.08006853	      1.97048133	     -3.43995553	    -10.41823934	     -6.95149661	     -9.17903944	      6.01201765	      0.66359050	      3.25439645	      6.25861887
      1.16283333	     -1.80926490	     -0.00812478	     -2.70622652	     -0.00841047	      0.97869163	      0.32763384	    -10.99424781	      2.59867013	     -1.02197689	    -26.55657635	      1.34588503	     -8.80216519	     15.90612912	     23.95916930	      2.22591064	     -3.27168053	    -10.86704519	     -7.11957445	     -9.52639290	      5.39402312	      0.73087610	      3.04532811	      6.00769558
      1.16700000	     -1.82223029	      0.17075119	     -2.60760559	     -0.00234999	      0.97917517	      0.32711452	    -10.42096038	      2.35774904	     -1.19861020	    -28.01047694	      0.23584189	     -8.96474207	     15.94246277	     23.88878568	      2.47044781	     -3.19884225	    -11.39719222	     -7.03562093	     -9.49651779	      5.39591704	      0.80914158	      2.81804030	      6.04997550
      1.17116667	     -1.81349981	      0.34413507	     -2.51857935	      0.00365583	      0.97970711	      0.32659549	     -9.84093891	      2.11850728	     -1.34199665	    -29.49152939	     -0.93838494	     -9.15678018	     16.02587160	     23.78384335	      2.71006373	     -3.13656122	    -11.90278412	     -6.99097807	     -9.57588054	      5.38510152	      0.84812903	      2.59898642	      5.99268631
      1.17533333	     -1.78761303	      0.54626811	     -2.44038848	      0.00966296	      0.98029592	      0.32607881	     -9.24839893	      1.83585226	     -1.49271701	    -31.00514061	     -2.16468443	     -9.35931900	     16.09570170	     23.61250923	      2.98079371	     -3.06455211	    -12.31580092	     -6.91502278	     -9.62849479	      5.37330979	      0.87807238	      2.34760492	      5.92065180
      1.17950000	     -1.76202570	      0.74287017	     -2.35788529	      0.01562489	      0.98089166	      0.32555253	     -8.62752552	      1.55500173	     -1.64135029	    -32.54362885	     -3.44504884	     -9.56214902	     16.17050592	     23.43145843	      3.24922285	     -2.98765998	    -12.70914129	     -6.81534570	     -9.69364931	      5.35666111	      0.89907237	      2.10482586	      5.83888632
      1.18366667	     -1.74139281	      0.94532326	     -2.27934609	      0.02153903	      0.98149517	      0.32501990	     -7.97327133	      1.26129903	     -1.78286878	    -34.10358660	     -4.77399008	     -9.77117519	     16.24693723	     23.23913894	      3.52468444	     -2.91387282	    -13.06828195	     -6.69144391	     -9.75703675	      5.33551522	      0.92158676	      1.85630456	      5.75112464
